<?xml version="1.0" encoding="UTF-8" standalone="no"?>
<svg
   version="1.1"
   width="1024"
   height="1024"
   style="clip-rule:evenodd;fill-rule:evenodd;image-rendering:optimizeQuality;shape-rendering:geometricPrecision;text-rendering:geometricPrecision"
   xmlns:xlink="http://www.w3.org/1999/xlink"
   xmlns="http://www.w3.org/2000/svg"
   xmlns:svg="http://www.w3.org/2000/svg">
  <defs
     id="defs325">
    <linearGradient
       id="linearGradient345">
      <stop
         style="stop-color:#3e25e0;stop-opacity:1;"
         offset="0"
         id="stop346" />
      <stop
         style="stop-color:#7f879e;stop-opacity:1;"
         offset="0.4212963"
         id="stop350" />
      <stop
         style="stop-color:#74ce6f;stop-opacity:1;"
         offset="0.69953704"
         id="stop348" />
      <stop
         style="stop-color:#6e675e;stop-opacity:1;"
         offset="1"
         id="stop347" />
    </linearGradient>
    <linearGradient
       xlink:href="#linearGradient345"
       id="linearGradient347"
       x1="272"
       y1="512"
       x2="752"
       y2="512"
       gradientUnits="userSpaceOnUse"
       spreadMethod="pad"
       gradientTransform="matrix(1.4731392,-1.4731392,1.4731392,1.4731392,-996.49444,512.00004)" />
  </defs>
  <rect
     style="clip-rule:evenodd;display:inline;fill:#0a0531;fill-opacity:1;fill-rule:evenodd;stroke-width:1.127;stroke-linecap:round;stroke-linejoin:bevel;paint-order:stroke fill markers;image-rendering:optimizeQuality;shape-rendering:geometricPrecision;text-rendering:geometricPrecision"
     width="1024"
     height="1024"
     x="0"
     y="0" />
  <path
     style="clip-rule:evenodd;display:inline;opacity:1;mix-blend-mode:normal;fill:url(#linearGradient347);fill-opacity:1;fill-rule:evenodd;stroke-width:4.39375;stroke-linecap:round;stroke-linejoin:bevel;stroke-dasharray:none;paint-order:stroke fill markers;image-rendering:optimizeQuality;shape-rendering:geometricPrecision;text-rendering:geometricPrecision"
     d="m 158.4466,158.44659 c -195.262135,195.26216 -195.262135,511.84465 0,707.10681 195.26215,195.2621 511.84464,195.2621 707.1068,0 195.2621,-195.26215 195.2621,-511.84464 0,-707.10678 -195.26214,-195.262155 -511.84463,-195.262155 -707.1068,-3e-5 z m 35.35535,35.35535 c 175.73594,-175.735915 460.66015,-175.735915 636.39605,0 175.736,175.73594 175.736,460.66015 0,636.39605 -175.7359,175.73601 -460.66009,175.73601 -636.39603,0 -175.735925,-175.7359 -175.735925,-460.66008 -2e-5,-636.39605 z m 30.09579,47.77344 c -65.3668,69.76531 -103.27539,160.83094 -106.72203,256.37226 v 24.98006 c 2.6949,96.62848 40.65568,188.9309 106.72203,259.49689 l 17.67765,17.6777 c 152.17677,142.367 388.67247,142.367 540.84921,0 l 17.6777,-17.6777 C 866.1285,711.90421 904.0862,619.67253 906.8243,523.10608 V 498.126 C 903.4203,402.52259 865.5088,311.38649 800.1023,241.57539 L 782.8418,223.48052 C 712.63446,157.5894 620.81761,119.54721 524.5821,116.47654 l -24.98293,-0.002 C 403.3002,119.50232 311.41152,157.5486 241.1582,223.4814 Z m 34.94673,-0.40858 c 65.54232,-61.27335 151.07691,-96.70611 240.74892,-99.73034 l -0.0461,200.23757 c -36.59992,2.67883 -71.36439,17.07231 -99.14627,41.04937 z M 241.5754,259.25306 382.99675,400.6744 c -23.65157,27.27881 -38.05245,61.34961 -41.13569,97.32215 l -199.74843,-0.0461 c 3.44012,-88.92253 38.74228,-173.64294 99.46277,-238.69739 z m -99.46279,263.67751 199.48951,0.0461 c 2.52125,37.06052 17.0534,72.28936 41.39463,100.34899 L 241.5754,764.74689 C 180.16098,698.89112 144.80744,612.93867 142.11261,522.93057 Z M 524.57634,141.44508 c 89.61178,3.06252 175.07918,38.48936 240.57916,99.72172 L 623.5989,382.72341 c -27.76131,-23.96072 -62.49609,-38.35216 -99.06859,-41.0465 z M 408.88027,408.88026 c 56.95143,-56.95146 149.28801,-56.95146 206.23946,0 56.95144,56.95142 56.95144,149.28801 0,206.23946 -56.95145,56.95145 -149.28802,56.95145 -206.23946,0 -56.95146,-56.95145 -56.95146,-149.28804 0,-206.23946 z m 33.8822,33.8822 c -38.23883,38.23882 -38.23883,100.23627 0,138.47506 38.23882,38.23883 100.23626,38.23883 138.47506,0 38.23883,-38.23879 38.23883,-100.23625 0,-138.47506 -38.2388,-38.23885 -100.23625,-38.23885 -138.47506,0 z m 17.67764,17.67765 c 28.47577,-28.47573 74.64401,-28.47573 103.11975,0 28.47574,28.47576 28.47574,74.644 0,103.11974 -28.47574,28.47574 -74.64399,28.47574 -103.11975,0 -28.47572,-28.47574 -28.47572,-74.64399 0,-103.11974 z m 33.88221,33.8822 c -9.76309,9.7631 -9.76309,25.59223 0,35.35536 9.7631,9.76309 25.59223,9.76309 35.35536,0 9.76309,-9.7631 9.76309,-25.59223 0,-35.35536 -9.7631,-9.76309 -25.59223,-9.76309 -35.35536,0 z M 259.25307,782.4246 400.67441,641.00324 c 27.64912,24.01415 62.28344,38.50756 98.79527,41.34285 l -0.0461,199.54131 C 409.98806,878.798 324.68637,843.4716 259.25303,782.4246 Z M 641.00324,400.6744 782.42461,259.25306 c 60.75739,65.09738 96.0622,149.8836 99.4628,238.86433 l -199.73985,-0.0432 c -3.06963,-36.00068 -17.47459,-70.10113 -41.14432,-97.39981 z m 41.39463,122.38278 199.48954,0.0461 c -2.7364,89.94804 -38.0871,175.83218 -99.4628,241.64372 L 641.00324,623.32557 c 24.3251,-28.03801 38.85621,-63.23603 41.39463,-100.26839 z m -157.94524,159.3033 c 36.54066,-2.82304 71.2048,-17.32258 98.87295,-41.35722 L 764.7469,782.4246 c -65.47769,61.08539 -150.84755,96.4146 -240.34317,99.4628 z" />
</svg>
