<?xml version="1.0" encoding="UTF-8" standalone="no"?>
<svg class="mouse-svg" version="1.1" x="0px" y="0px" viewBox="0 0 2000 1500" width="2000" height="1500" xmlns="http://www.w3.org/2000/svg" xmlns:svg="http://www.w3.org/2000/svg">
    <defs>
        <style >
            .st-1{fill:#52c391}
            .st-2{fill:#7EA093;}
            .st-3{fill:#464947;}
            .st-4{fill:#2C2C2C;}
        </style>
    </defs>
    <path fill="#181918" d="m 887.19846,284.23359 c -194,-18.2 -608.4,367.9 -733,594.1 -88.3,418.40001 1768.89994,315.90001 1693.49994,-302.5 5.6,-18 -546.8,-284.2 -960.49994,-291.6 z" />
    <path class="st-1" d="m 519.43773,756.01439 c -58.79374,82.66116 -174.41963,239.08662 -183.93927,254.41921 0,0 101.02589,36.6949 137.5,42.1 30.24509,-40.171 118.5808,-179.10001 175.4808,-261.60001 -36.43874,-11.36939 -70.81139,-20.00715 -129.04153,-34.9192 z" />
    <path class="st-1" d="m 1086.7984,325.83359 c 0,0 -144.89994,120.6 -218.09994,184.5 -58.6,-22 -126.3,-27.5 -133.9,-29.5 67.5,-58.1 146.75581,-124.31813 217.25581,-179.71814 43.99349,4.24419 63.94693,8.12693 134.74413,24.71814 z" />
    <path class="st-1" d="m 1196.4984,247.83359 c -114.2,-1.5 -230.87702,3.51184 -341.19994,33.3 -7.03763,1.90022 -64.97676,15.21954 -19.87676,9.11954 106.9,-7.7 231.3767,23.98046 318.0767,45.38046 91.7,22.5 166,78.17724 232.1741,153.25491 23.6116,26.78848 47.2259,57.94509 63.9259,63.04509 17.7,5.5 106,-21.8 207,-23.6 117.2,-2.1 159.6,11.1 199.4,82.6 9.8,-12.3 -5.4,-39.7 -14.8,-56.9 -35,-63.7 -88.5,-118.6 -148.4,-159.7 -91,-62.4 -200.6,-95.4 -307.5,-123 -61.5,-15.8 -125.4,-22.6 -188.8,-23.5 z" />
    <path class="st-1 st-rmb" d="m 854.79846,292.13359 c -12.8,-0.1 -25.7,0.7 -38.5,2.5 -16.7,2.4 -32.6,9 -48.6,14.3 -98,36.1 -128.4,60.8 -219.8,113.7 -158.7,104.8 -253.1,196.4 -387,414 -44.19687,98.2 74.6,123.9 151.1,168.40001 23.4,-33.40001 291.2,-384.30001 383.5,-504.80001 101.7,-83.3 212.79859,-174.75071 244.29859,-200.65071 -11.8,-1.6 -73.09859,-7.34929 -84.99859,-7.44929 z" />
    <path class="st-2 st-mmb" d="m 722.59846,486.93359 c -70.3,-7.3 -117.5,15.6 -167.7,108 -20.8,38.4 -26.99018,116.10626 -24.39018,152.90626 12.2,5.1 88.99018,23.49374 123.19018,36.69374 8.3,-135.1 66.7,-302.4 180,-261.5 -21.3,-21.9 -72.2,-24.9 -111.1,-36.1 z" />
    <path class="st-3" d="m 727.29846,554.13359 c -57.7,65.9 -70.4,177.9 -73,228.3 59.3,-82.9 75.2,-127.6 199.2,-246 -20.4,-19.3 -74.4,-41.4 -126.2,17.7 z" />
    <path class="st-1 st-lmb" d="m 1101.5243,330.4077 c -183.19995,144.2 -342.72584,322.32589 -470.62584,517.02589 -45.3,64.6 -95.65491,142.10982 -137.75491,208.80981 99.2,30.7 182.67356,35.8473 257.15309,41.2482 153.1188,11.1035 187.42914,-10.3022 245.39556,-57.3513 155.3216,-126.06872 188.2062,-199.90671 380.4062,-405.80671 20.3,-21.7 64.5,-69.4 56.2,-80.2 -110.9951,-143.18805 -205.2,-185.70313 -238.4,-197.9 -27.4245,-10.07509 -67.7741,-21.72589 -92.3741,-25.82589 z" />
    <path class="st-4" d="m 157.69846,929.13359 c -14.9,7.3 41,105.30001 60.6,156.20001 27.3,38.3 228.8,178.8 555.1,209.8 120.5,11.4 118.5,14.4 210.9,-6.1 -30.4,-73.7 -43.5,-96 -80.1,-171.3 -40.8,11.9 -93.7908,2.4709 -140.3,-2.5 -147.72944,-15.7894 -298.4213,-33.5186 -437.25353,-86.4233 -61.10036,-23.2834 -124.14647,-58.17671 -168.94647,-99.67671 z" />
    <path class="st-3" d="m 1711.4984,551.03359 c -34.6,-1.9 -118.9,-1 -175.2,15 -157.7,44.9 -351.5,313.2 -446.3,415.2 -94.89994,102.10001 -140.79994,106.40001 -191.69994,138.90001 -51,32.5 15.8,129.3 40,158 24.2,28.7 44,8.7 132.49994,-17.7 88.5,-26.4 216.1,-115.6 321.1,-177.6 126.4,-73.5 270.7,-114.20001 392.3,-197.10001 114.1,-69.4 40.8,-206.6 71.8,-274.8 -5.6,-17.7 -18.9,-24.1 -32,-31 -33.7,-17.5 -77.9,-27 -112.5,-28.9 z" />
    <path class="st-4" d="m 1542.4984,664.73359 -0.8,47.4 c -0.1,6.8 -4.7,12.8 -11.2,14.6 -129,36.1 -231.1,131.7 -282.8,254 -4.3,10.2 -17.7,12.7 -25.4,4.7 l -24.9,-25.8 c -4.2,-4.4 -5.5,-10.9 -3.2,-16.6 58.1,-143.6 177.7,-255 329,-293.7 9.9,-2.4 19.4,5.2 19.3,15.4 z" />
    <path class="st-3" d="m 1551.9984,664.73359 -0.8,47.4 c -0.1,6.8 -4.7,12.8 -11.2,14.6 -51.4,14.4 -98.5,38.2 -139.9,69.4 -8,6 -19.5,3.9 -24.8,-4.6 l -20.9,-33.2 c -4.7,-7.4 -3,-17.2 3.9,-22.6 50.8,-40 109.7,-69.9 174.4,-86.4 9.9,-2.4 19.5,5.2 19.3,15.4 z" />
    <path class="st-1 st-fmb" d="m 1556.6984,665.73359 -0.8,47.4 c -0.1,6.8 -4.7,12.8 -11.2,14.6 -51.4,14.4 -98.5,38.2 -139.9,69.4 -8,6 -19.5,3.9 -24.8,-4.6 l -20.9,-33.2 c -4.7,-7.4 -3,-17.2 3.9,-22.6 50.8,-40 109.7,-69.9 174.4,-86.4 9.9,-2.4 19.4,5.2 19.3,15.4 z" />
    <path class="st-3" d="m 1369.2984,799.33359 c 3.2,5.1 2.2,11.9 -2.3,15.8 -49,43.1 -88,97.8 -113.9,159.7 -4.1,9.8 -16.8,12.2 -24.1,4.5 l -23.6,-24.8 c -4,-4.2 -5.3,-10.5 -3.1,-15.9 27.8,-69.6 70.5,-131.3 124.3,-180.2 5.7,-5.2 14.8,-3.9 18.9,2.7 z" />
    <path class="st-1 st-bmb" d="m 1375.0984,802.63359 c 3.2,5.1 2.2,11.9 -2.3,15.8 -49,43.1 -88,97.8 -113.9,159.7 -4.1,9.8 -16.8,12.2 -24.1,4.5 l -23.6,-24.8 c -4,-4.2 -5.3,-10.5 -3.1,-15.9 27.8,-69.6 70.5,-131.3 124.3,-180.2 5.7,-5.2 14.8,-3.9 18.9,2.7 z" />
</svg>
